<svg width="800" height="600" xmlns="http://www.w3.org/2000/svg">
 <g>
  <title>Layer 1</title>
  <g transform="rotate(-90 400 300)" id="svg_1">
   <g id="svg_2">
    <g id="svg_3">
     <path id="svg_4" d="m448.59999,55c-108.5,0 -196.4,87.9 -196.4,196.4c0,46.9 16.4,89.9 43.8,123.7l-135,135c-8,8 -8,20.9 0,28.9c8,8 20.9,8 28.9,0l135,-135c33.8,27.4 76.8,43.8 123.7,43.8c108.5,0 196.4,-87.9 196.4,-196.4s-88,-196.4 -196.4,-196.4zm0,352c-85.9,0 -155.6,-69.7 -155.6,-155.6c0,-85.9 69.7,-155.6 155.6,-155.6c85.9,0 155.6,69.7 155.6,155.6c0,85.9 -69.7,155.6 -155.6,155.6z"/>
    </g>
   </g>
  </g>
 </g>

</svg>